<mxfile host="app.diagrams.net" agent="Mozilla/5.0 (Windows NT 10.0; Win64; x64) AppleWebKit/537.36 (KHTML, like Gecko) Chrome/129.0.0.0 Safari/537.36" version="24.7.17">
  <diagram name="Page-1" id="1y2rNK9sCqG8y1moXM-m">
    <mxGraphModel dx="1674" dy="746" grid="1" gridSize="10" guides="1" tooltips="1" connect="1" arrows="1" fold="1" page="1" pageScale="1" pageWidth="850" pageHeight="1100" math="0" shadow="0">
      <root>
        <mxCell id="0" />
        <mxCell id="1" parent="0" />
        <mxCell id="Tw6Ts5BB-uwgtk3LVaJr-7" value="" style="edgeStyle=orthogonalEdgeStyle;rounded=0;orthogonalLoop=1;jettySize=auto;html=1;" parent="1" source="Tw6Ts5BB-uwgtk3LVaJr-1" target="Tw6Ts5BB-uwgtk3LVaJr-2" edge="1">
          <mxGeometry relative="1" as="geometry" />
        </mxCell>
        <mxCell id="Tw6Ts5BB-uwgtk3LVaJr-1" value="" style="sketch=0;points=[[0,0,0],[0.25,0,0],[0.5,0,0],[0.75,0,0],[1,0,0],[0,1,0],[0.25,1,0],[0.5,1,0],[0.75,1,0],[1,1,0],[0,0.25,0],[0,0.5,0],[0,0.75,0],[1,0.25,0],[1,0.5,0],[1,0.75,0]];outlineConnect=0;fontColor=#232F3E;gradientColor=#FF4F8B;gradientDirection=north;fillColor=#BC1356;strokeColor=#ffffff;dashed=0;verticalLabelPosition=bottom;verticalAlign=top;align=center;html=1;fontSize=12;fontStyle=0;aspect=fixed;shape=mxgraph.aws4.resourceIcon;resIcon=mxgraph.aws4.eventbridge;" parent="1" vertex="1">
          <mxGeometry x="30" y="277" width="78" height="78" as="geometry" />
        </mxCell>
        <mxCell id="Tw6Ts5BB-uwgtk3LVaJr-11" value="" style="edgeStyle=orthogonalEdgeStyle;rounded=0;orthogonalLoop=1;jettySize=auto;html=1;" parent="1" source="Tw6Ts5BB-uwgtk3LVaJr-2" edge="1">
          <mxGeometry relative="1" as="geometry">
            <mxPoint x="410" y="316" as="targetPoint" />
          </mxGeometry>
        </mxCell>
        <mxCell id="Tw6Ts5BB-uwgtk3LVaJr-17" value="" style="edgeStyle=orthogonalEdgeStyle;rounded=0;orthogonalLoop=1;jettySize=auto;html=1;" parent="1" source="Tw6Ts5BB-uwgtk3LVaJr-2" target="Tw6Ts5BB-uwgtk3LVaJr-16" edge="1">
          <mxGeometry relative="1" as="geometry" />
        </mxCell>
        <mxCell id="Tw6Ts5BB-uwgtk3LVaJr-2" value="" style="outlineConnect=0;dashed=0;verticalLabelPosition=bottom;verticalAlign=top;align=center;html=1;shape=mxgraph.aws3.lambda_function;fillColor=#F58534;gradientColor=none;" parent="1" vertex="1">
          <mxGeometry x="220" y="280" width="80" height="72" as="geometry" />
        </mxCell>
        <mxCell id="Tw6Ts5BB-uwgtk3LVaJr-3" value="Archive" style="sketch=0;outlineConnect=0;fontColor=#232F3E;gradientColor=none;strokeColor=#232F3E;fillColor=#ffffff;dashed=0;verticalLabelPosition=bottom;verticalAlign=top;align=center;html=1;fontSize=12;fontStyle=0;aspect=fixed;shape=mxgraph.aws4.resourceIcon;resIcon=mxgraph.aws4.archive;" parent="1" vertex="1">
          <mxGeometry x="418.25" y="110" width="60" height="60" as="geometry" />
        </mxCell>
        <mxCell id="Tw6Ts5BB-uwgtk3LVaJr-12" value="" style="edgeStyle=orthogonalEdgeStyle;rounded=0;orthogonalLoop=1;jettySize=auto;html=1;" parent="1" target="Tw6Ts5BB-uwgtk3LVaJr-3" edge="1">
          <mxGeometry relative="1" as="geometry">
            <mxPoint x="448.29999999999995" y="269.5" as="sourcePoint" />
          </mxGeometry>
        </mxCell>
        <mxCell id="Tw6Ts5BB-uwgtk3LVaJr-13" value="" style="sketch=0;points=[[0,0,0],[0.25,0,0],[0.5,0,0],[0.75,0,0],[1,0,0],[0,1,0],[0.25,1,0],[0.5,1,0],[0.75,1,0],[1,1,0],[0,0.25,0],[0,0.5,0],[0,0.75,0],[1,0.25,0],[1,0.5,0],[1,0.75,0]];outlineConnect=0;fontColor=#232F3E;gradientColor=#F78E04;gradientDirection=north;fillColor=#D05C17;strokeColor=#ffffff;dashed=0;verticalLabelPosition=bottom;verticalAlign=top;align=center;html=1;fontSize=12;fontStyle=0;aspect=fixed;shape=mxgraph.aws4.resourceIcon;resIcon=mxgraph.aws4.ec2;" parent="1" vertex="1">
          <mxGeometry x="409.25" y="270" width="78" height="78" as="geometry" />
        </mxCell>
        <mxCell id="Tw6Ts5BB-uwgtk3LVaJr-20" value="" style="edgeStyle=orthogonalEdgeStyle;rounded=0;orthogonalLoop=1;jettySize=auto;html=1;" parent="1" source="Tw6Ts5BB-uwgtk3LVaJr-16" target="Tw6Ts5BB-uwgtk3LVaJr-3" edge="1">
          <mxGeometry relative="1" as="geometry" />
        </mxCell>
        <mxCell id="Tw6Ts5BB-uwgtk3LVaJr-16" value="" style="outlineConnect=0;dashed=0;verticalLabelPosition=bottom;verticalAlign=top;align=center;html=1;shape=mxgraph.aws3.lambda_function;fillColor=#F58534;gradientColor=none;" parent="1" vertex="1">
          <mxGeometry x="220" y="128" width="80" height="72" as="geometry" />
        </mxCell>
        <mxCell id="r1DsGq7am8J413tT90HT-1" value="&lt;h2 style=&quot;box-sizing: border-box; margin: calc(var(--content-rhythm) / 2) 0; font-family: -apple-system, BlinkMacSystemFont, &amp;quot;Segoe UI&amp;quot;, Roboto, Helvetica, Arial, sans-serif, &amp;quot;Apple Color Emoji&amp;quot;, &amp;quot;Segoe UI Emoji&amp;quot;, &amp;quot;Segoe UI Symbol&amp;quot;; padding: 0px; line-height: var(--lh-tight); color: rgb(23, 23, 23); text-align: start; text-wrap: wrap; background-color: rgb(255, 255, 255);&quot;&gt;&lt;u style=&quot;&quot;&gt;Architecture Overview&lt;/u&gt;&lt;/h2&gt;" style="text;html=1;align=center;verticalAlign=middle;resizable=0;points=[];autosize=1;strokeColor=none;fillColor=none;" vertex="1" parent="1">
          <mxGeometry x="155" y="33" width="210" height="40" as="geometry" />
        </mxCell>
      </root>
    </mxGraphModel>
  </diagram>
</mxfile>
